PathFileType	4	(X/Y/Z)	/home/abdul/Desktop/myosuite/custom_workspace/IK/output/S11_12_3.trc
DataRate	CameraRate	NumFrames	NumMarkers	Units	OrigDataRate	OrigDataStartFrame	OrigNumFrames
200.0	200.0	22	3	mm	200.0	1236	1976
Frame#	Time	V_Shoulder			V_Elbow			V_Wrist		
		X1	Y1	Z1	X2	Y2	Z2	X3	Y3	Z3

1236	6.175	-103.18000116149875	620.4105715299246	301.719703430297	-280.9153918293967	410.77935059270726	100.38933427138218	-127.4951285844059	276.92545692087276	263.7591866980563
1237	6.18	-103.32662325715741	619.8103271506922	301.5057481302019	-280.79382575137896	410.75117455713956	99.1883653858062	-127.7192802548829	275.12016526911964	261.5638447752015
1238	6.185	-103.47187059837195	619.2036644856225	301.2914619680377	-280.6688716417811	410.71372411701054	97.99311415152206	-127.93468118267853	273.32638924738046	259.36027767279074
1239	6.19	-103.61566303113575	618.5907012388458	301.0769176265781	-280.54044992516106	410.66683420955655	96.8038288011692	-128.14111017779774	271.5448060996248	257.1493043945905
1240	6.195	-103.75792285104377	617.9715593259994	300.86218772411127	-280.40848435335533	410.6103481266566	95.62074613067715	-128.33835916268856	269.77605946829243	254.93174397506203
1241	6.2	-103.89857485592223	617.3463647974497	300.6473447912504	-280.2729023874282	410.5441177702427	94.44409202682442	-128.52623352137556	268.0207589012202	252.70841473856072
1242	6.205	-104.03754639247605	616.7152477551267	300.43246124934814	-280.13363557150046	410.46800389339876	93.27408201821648	-128.70455242280644	266.2794794580391	250.4801335820443
1243	6.21	-104.17476739702904	616.0783422629361	300.2176093902547	-279.99061989631747	410.3818763267295	92.11092184507581	-128.8731491177889	264.5527614146266	248.2477152808595
1244	6.215	-104.31017043044604	615.4357862507256	300.00286135714697	-279.8437961504603	410.28561418960015	90.95480804323283	-129.03187120892972	262.8411100638599	246.01197181701622
1245	6.22	-104.44369070733859	614.7877214118006	299.7882891261498	-279.6931102571611	410.1791060858691	89.80592853773469	-129.1805808930234	261.14499561059654	243.77371172921605
1246	6.225	-104.57526611966934	614.1342930939998	299.5739644884668	-279.5385135947526	410.06225028375667	88.66446324154637	-129.3191551753735	259.46485315851663	241.5337394837726
1247	6.23	-104.70483725487945	613.4756501843665	299.359959032733	-279.3799632988711	409.9349548795115	87.53058465490528	-129.447486055566	257.80108278618013	239.2928548654465
1248	6.235	-104.83234740867537	612.8119449874632	299.14634412730214	-279.2174225446304	409.79713794455483	86.40445846100513	-129.56548068425047	256.15404970940557	237.05185238712005
1249	6.24	-104.95774259261884	612.1433330974031	298.9331909021852	-279.05086080709816	409.64872765580395	85.28624411382678	-129.6730614905235	254.52408452684466	234.81152071715545
1250	6.245	-105.08097153667343	611.4699732636923	298.72057023035626	-278.8802540985313	409.4896624088917	84.17609541410008	-129.7701662795448	252.91148354542605	232.57264212321542
1251	6.25	-105.2019856868672	610.7920272509979	298.5085527081516	-278.70558518096436	409.3198909140229	83.07416106957143	-129.85674830005905	251.31650918215956	230.33599193128032
1252	6.255	-105.32073919823834	610.1096596929774	298.29720863449506	-278.526843752892	409.13937227422207	81.9805852359639	-129.93277628153442	249.7393904386398	228.10233799856584
1253	6.26	-105.43718892323481	609.423037940333	298.0866079886916	-278.34402660894204	408.9480760457522	80.89550803524847	-129.9982344406739	248.1803234444571	225.872440199036
1254	6.265	-105.5512943957449	608.7323319032688	297.87682040654585	-278.1571377716018	408.74598228050036	79.81906604809504	-130.0531224570969	246.63947206561897	223.6470499202124
1255	6.27	-105.6630178109382	608.0377138885618	297.6679151545745	-277.9661885942266	408.53308155015316	78.75139277763732	-130.09745541803628	245.11696857400466	221.42690957000713
1256	6.275	-105.77232400110039	607.3393584314725	297.45996110209745	-277.7711978347397	408.30937495200453	77.69261908196361	-130.13126373194314	243.61291437381823	219.21275209234778
1257	6.28	-105.87918040764634	606.6374421227465	297.2530266910124	-277.5721916996077	408.0748740962641	76.64287357303586	-130.15459301094134	242.12738078097203	217.005300490423
